Coordinates
version=1
nRows=22
nColumns=24
inDegrees=yes

Units are S.I. units (second, meters, Newtons, ...)
Angles are in degrees.

endheader
time	pelvis_tilt	pelvis_list	pelvis_rotation	pelvis_tx	pelvis_ty	pelvis_tz	hip_flexion_r	hip_adduction_r	hip_rotation_r	knee_angle_r	ankle_angle_r	subtalar_angle_r	mtp_angle_r	hip_flexion_l	hip_adduction_l	hip_rotation_l	knee_angle_l	ankle_angle_l	subtalar_angle_l	mtp_angle_l	lumbar_extension	lumbar_bending	lumbar_rotation
      0.56600000	     -1.37930253	      3.22723109	     12.49165203	     -0.81974337	      0.87182649	      0.27450956	     32.65239142	     -5.11537575	    -11.12832076	     -9.17599937	      8.09596275	      0.02693389	      3.22561190	    -20.83150608	      2.38569716	      4.24154346	    -11.48048941	     14.61395008	      5.71062229	     17.35217827	     -5.12611156	     -5.57219861	    -11.81690098
      0.57016667	     -1.37096222	      3.11109943	     12.53019342	     -0.81333543	      0.87111694	      0.27469820	     32.66667741	     -4.92655896	    -11.09359080	     -9.81785754	      7.95888719	     -0.18490217	      3.19296622	    -20.88457274	      2.15024499	      4.17434936	    -12.17211768	     14.30916335	      5.72101745	     17.41221120	     -5.01908457	     -5.36443379	    -11.55730678
      0.57433333	     -1.31892196	      2.95827521	     12.56629655	     -0.80687682	      0.87051747	      0.27494362	     32.58196293	     -4.67023907	    -11.00699299	    -10.34875221	      7.62888568	     -0.62185813	      3.16805161	    -20.95278885	      1.85706955	      4.03440768	    -12.90608587	     14.03400670	      5.83635381	     17.55337396	     -4.95897673	     -5.10758116	    -11.47561317
      0.57850000	     -1.23872997	      2.79286263	     12.58103220	     -0.80035017	      0.86996909	      0.27524037	     32.45832305	     -4.37857434	    -10.90191057	    -10.86703007	      7.23165325	     -1.13016398	      3.16814676	    -21.03989700	      1.54346161	      3.82573372	    -13.66613879	     13.75707312	      6.00870078	     17.85133271	     -4.93124275	     -4.83958295	    -11.39536135
      0.58266667	     -1.19336011	      2.61890923	     12.59479862	     -0.79377995	      0.86941804	      0.27553173	     32.36187281	     -4.08310815	    -10.79970137	    -11.37089160	      6.76691704	     -1.61694363	      3.19843113	    -21.07647253	      1.23607131	      3.66866487	    -14.44228603	     13.39485085	      6.08793534	     18.19817833	     -4.83964400	     -4.55533670	    -11.30502582
      0.58683333	     -1.13032332	      2.43023183	     12.59658744	     -0.78718407	      0.86891490	      0.27586216	     32.23549428	     -3.75636623	    -10.67158773	    -11.84916398	      6.24545737	     -2.14896477	      3.26347263	    -21.11500311	      0.90946252	      3.48338530	    -15.24485198	     12.99949072	      6.17695937	     18.64333791	     -4.77414947	     -4.25051265	    -11.19708474
      0.59100000	     -1.08324605	      2.20148186	     12.62589262	     -0.78052190	      0.86841352	      0.27616462	     32.12487923	     -3.41473474	    -10.63927954	    -12.33488876	      5.74931789	     -2.55423172	      4.16212156	    -21.08257322	      0.52024609	      3.22390337	    -16.13271627	     12.57670344	      6.36892299	     22.96959968	     -4.66698842	     -3.88961997	    -11.10702149
      0.59516667	     -1.03588920	      2.03782984	     12.57094466	     -0.77385927	      0.86796041	      0.27656463	     32.02646090	     -3.08459937	    -10.41917064	    -12.83327375	      5.09079698	     -3.13040515	      4.16819982	    -21.11999345	      0.25939156	      3.12300694	    -16.90192562	     11.98284509	      6.20487618	     23.08162279	     -4.59421217	     -3.62763912	    -10.97809948
      0.59933333	     -0.99819321	      1.82954979	     12.53726400	     -0.76716397	      0.86751273	      0.27696327	     31.93496500	     -2.72178996	    -10.24191405	    -13.32135127	      4.41818895	     -3.72096246	      4.21028291	    -21.08511708	     -0.06755682	      2.94391177	    -17.77853752	     11.46183957	      6.22901410	     23.28383792	     -4.48539020	     -3.30383310	    -10.82542555
      0.60350000	     -0.96888637	      1.61110526	     12.49382643	     -0.76044705	      0.86708238	      0.27738747	     31.86393322	     -2.34723217	    -10.05704629	    -13.83196953	      3.72596594	     -4.31029570	      4.28071520	    -21.01526068	     -0.40118155	      2.75144426	    -18.69599409	     10.90187413	      6.25655940	     23.55691598	     -4.36667049	     -2.96874583	    -10.66889163
      0.60766667	     -0.94943220	      1.39466310	     12.43438105	     -0.75371516	      0.86666468	      0.27783235	     31.82119212	     -1.97227086	     -9.85659613	    -14.37970110	      3.03048396	     -4.88710783	      4.37239964	    -20.91636769	     -0.72448634	      2.55578372	    -19.64161647	     10.30159225	      6.26635126	     23.88589365	     -4.23491543	     -2.63307592	    -10.49716411
      0.61183333	     -0.83737681	      1.10841077	     12.34729989	     -0.74687713	      0.86638232	      0.27833315	     31.67447112	     -1.49448822	     -9.67338937	    -14.90106909	      2.33522553	     -5.46225612	      4.78670347	    -20.89645692	     -1.15496804	      2.20743021	    -20.60475407	      9.65416894	      6.46822731	     25.22888322	     -4.19098107	     -2.17217302	    -10.31574715
      0.61600000	     -0.93539492	      0.95353686	     12.28833395	     -0.74023668	      0.86586981	      0.27875882	     31.82453102	     -1.22382689	     -9.45090993	    -15.61594596	      1.72052345	     -5.92863330	      4.85505154	    -20.61634086	     -1.36301358	      2.17650183	    -21.65711025	      8.96727167	      6.24021649	     25.49961179	     -3.95035046	     -1.95570807	    -10.16056784
      0.62016667	     -0.84180113	      0.66122519	     12.17555700	     -0.73339534	      0.86562979	      0.27930241	     31.73083405	     -0.73605941	     -9.22540019	    -16.20804008	      1.02480391	     -6.51652256	      5.22828322	    -20.53040402	     -1.78682539	      1.82799645	    -22.68613122	      8.24495384	      6.38377391	     26.87222378	     -3.89065078	     -1.48996000	     -9.92007147
      0.62433333	     -0.95543939	      0.50832063	     12.09423844	     -0.72675589	      0.86513620	      0.27976151	     31.95206846	     -0.47287757	     -9.00121698	    -17.05599774	      0.55333972	     -6.89253023	      5.28154050	    -20.17645646	     -1.98462976	      1.78017572	    -23.82847687	      7.49352390	      6.18612512	     27.11981460	     -3.63419859	     -1.27225604	     -9.77735985
      0.62850000	     -0.98165830	      0.28329538	     11.98373018	     -0.71999555	      0.86479666	      0.28025632	     32.06841881	     -0.10650085	     -8.79126647	    -17.87294186	      0.14128190	     -7.18290760	      5.31581858	    -19.91244031	     -2.28272955	      1.61952501	    -24.94635712	      6.64034137	      6.10426317	     27.29316247	     -3.45710596	     -0.91107669	     -9.62715158
      0.63266667	     -1.02278346	      0.07661040	     11.86890663	     -0.71333479	      0.86442166	      0.28082508	     32.23136609	      0.25062834	     -8.52744129	    -18.74676742	     -0.34731941	     -7.71857991	      5.37526172	    -19.55619180	     -2.57756447	      1.38413764	    -26.21179039	      5.91019873	      6.12277626	     27.64230702	     -3.28336503	     -0.61483246	     -9.36718336
      0.63683333	     -1.01779538	     -0.17119574	     11.74355587	     -0.70658816	      0.86415141	      0.28138820	     32.34362954	      0.65339090	     -8.30958017	    -19.63204850	     -0.66715220	     -8.04887313	      6.05752903	    -19.24165213	     -2.93469389	      1.09326972	    -27.44804465	      5.00571266	      6.12578009	     32.13970013	     -3.14606825	     -0.22544435	     -9.22868934
      0.64100000	     -1.03339286	     -0.38483932	     11.62085418	     -0.69987590	      0.86390544	      0.28191068	     32.50027942	      1.00424589	     -8.11309326	    -20.59495403	     -0.85963430	     -8.23729353	      6.04757900	    -18.89577347	     -3.22560662	      0.93829491	    -28.70134475	      4.07421245	      5.98865988	     32.14292899	     -2.99777313	      0.12018387	     -9.07725272
      0.64516667	     -1.09707009	     -0.58140090	     11.49326128	     -0.69326099	      0.86357658	      0.28249624	     32.73421867	      1.33868692	     -7.87540374	    -21.60792009	     -1.07101391	     -8.54448254	      6.01996772	    -18.42418105	     -3.50778336	      0.72507319	    -30.08832361	      3.21077433	      5.96885788	     32.17139528	     -2.81176188	      0.40636692	     -8.83620227
      0.64933333	     -1.12619390	     -0.79910742	     11.36530283	     -0.68661220	      0.86333846	      0.28307761	     32.92023843	      1.69889471	     -7.66781458	    -22.61240545	     -1.16126533	     -8.74644634	      5.98563450	    -17.96831407	     -3.82645038	      0.49650605	    -31.48132389	      2.27246335	      5.94144003	     32.20404554	     -2.65887684	      0.73831542	     -8.65555698
      0.65350000	     -1.11828991	     -1.02886671	     11.24097076	     -0.67995955	      0.86319592	      0.28364727	     33.05409492	      2.07532183	     -7.48492540	    -23.60491373	     -1.13525506	     -8.88071497	      5.96373926	    -17.53539082	     -4.16627161	      0.28831117	    -32.87788152	      1.25420666	      5.85350078	     32.21475253	     -2.54456106	      1.11775186	     -8.53535732
